<svg width="25" height="18" viewBox="0 0 25 18" fill="none" xmlns="http://www.w3.org/2000/svg">
<path d="M24.0234 8.3106C21.4841 2.9615 17.6457 0.269531 12.5002 0.269531C7.35194 0.269531 3.51623 2.9615 0.97694 8.31328C0.875089 8.52895 0.822266 8.7645 0.822266 9.00301C0.822266 9.24152 0.875089 9.47708 0.97694 9.69275C3.51623 15.0419 7.35462 17.7338 12.5002 17.7338C17.6484 17.7338 21.4841 15.0419 24.0234 9.69007C24.2296 9.25614 24.2296 8.75257 24.0234 8.3106ZM12.5002 15.8052C8.17962 15.8052 5.01623 13.6142 2.78498 9.00167C5.01623 4.38917 8.17962 2.1981 12.5002 2.1981C16.8207 2.1981 19.9841 4.38917 22.2153 9.00167C19.9868 13.6142 16.8234 15.8052 12.5002 15.8052ZM12.393 4.28739C9.78944 4.28739 7.67873 6.3981 7.67873 9.00167C7.67873 11.6052 9.78944 13.716 12.393 13.716C14.9966 13.716 17.1073 11.6052 17.1073 9.00167C17.1073 6.3981 14.9966 4.28739 12.393 4.28739ZM12.393 12.0017C10.735 12.0017 9.39301 10.6597 9.39301 9.00167C9.39301 7.34364 10.735 6.00167 12.393 6.00167C14.051 6.00167 15.393 7.34364 15.393 9.00167C15.393 10.6597 14.051 12.0017 12.393 12.0017Z" fill="#D9D9D9"/>
</svg>
