<svg width="29" height="34" viewBox="0 0 29 34" fill="none" xmlns="http://www.w3.org/2000/svg">
<path d="M27.3573 15.0763H24.6252V6.07633C24.6252 3.2357 22.3229 0.933472 19.4823 0.933472H9.51801C6.67739 0.933472 4.37516 3.2357 4.37516 6.07633V15.0763H1.64301C0.931853 15.0763 0.3573 15.6509 0.3573 16.362V31.7906C0.3573 32.5018 0.931853 33.0763 1.64301 33.0763H27.3573C28.0685 33.0763 28.643 32.5018 28.643 31.7906V16.362C28.643 15.6509 28.0685 15.0763 27.3573 15.0763ZM7.26801 6.07633C7.26801 4.83481 8.2765 3.82633 9.51801 3.82633H19.4823C20.7238 3.82633 21.7323 4.83481 21.7323 6.07633V15.0763H7.26801V6.07633ZM25.7502 30.1835H3.25016V17.9692H25.7502V30.1835ZM13.3752 24.5987V26.7281C13.3752 26.9049 13.5198 27.0495 13.6966 27.0495H15.3037C15.4805 27.0495 15.6252 26.9049 15.6252 26.7281V24.5987C15.9568 24.3605 16.2044 24.0233 16.3322 23.6356C16.46 23.2478 16.4615 22.8295 16.3364 22.4408C16.2113 22.0521 15.9662 21.7132 15.6362 21.4727C15.3062 21.2323 14.9084 21.1027 14.5002 21.1027C14.0919 21.1027 13.6941 21.2323 13.3641 21.4727C13.0342 21.7132 12.789 22.0521 12.6639 22.4408C12.5388 22.8295 12.5403 23.2478 12.6681 23.6356C12.7959 24.0233 13.0435 24.3605 13.3752 24.5987Z" fill="#1890FF"/>
</svg>
